<svg width="148" height="20" viewBox="0 0 148 20" fill="none" xmlns="http://www.w3.org/2000/svg">
<path d="M19.7422 16.537C21.4815 9.16314 32.8536 1.48438 32.8536 1.48438C32.8536 1.48438 21.503 8.94411 19.7422 16.537Z" fill="#D61500"/>
<path d="M5.87073 9.97461C2.29762 12.5342 0 14.6171 0 14.6171C15.7569 10.1979 19.8454 16.9319 19.8454 16.9319C19.8454 16.9319 16.8177 11.0483 5.87073 9.97461Z" fill="#D61500"/>
<path d="M33.4572 1.20932C32.4308 0.930174 29.8411 0.7498 28.0589 0.865755C20.3801 1.06331 11.8553 5.64566 6.32812 9.24883C17.215 10.8078 19.9807 16.8202 19.9807 16.8202C22.012 9.1114 33.4572 1.20932 33.4572 1.20932Z" fill="#D61500"/>
<path d="M0.25 8.25699C2.30282 8.27846 4.14951 8.43736 5.80293 8.69933C11.3816 5.16916 19.9666 0.702765 27.6453 0.603989C29.3116 0.518097 31.6737 0.698471 32.8117 0.964737C15.9983 -3.35994 0.25 8.25699 0.25 8.25699ZM32.9019 0.973326C32.9105 0.97762 32.9191 0.97762 32.932 0.981915C32.9191 0.97762 32.9105 0.97762 32.9019 0.973326Z" fill="#D61500"/>
<path d="M34.1705 1.52344C34.2178 1.53632 29.206 4.68857 24.9844 8.95741C31.1214 3.21981 37.6105 2.73022 37.6105 2.73022C36.0215 2.04309 34.1705 1.52344 34.1705 1.52344Z" fill="#D61500"/>
<path d="M110.91 18.4957H107.586C106.061 18.4957 105.469 18.311 105.108 17.7055C104.709 17.0098 104.756 15.8846 105.258 14.5103C105.774 13.1231 106.568 11.8605 107.388 11.1476C108.17 10.4906 108.887 10.2715 110.463 10.2715H113.938L114.457 8.86719H110.884C109.274 8.86719 108.127 9.0991 107.178 9.62733C105.632 10.5077 104.146 12.3931 103.382 14.4631C102.755 16.1723 102.72 17.727 103.27 18.6503C103.824 19.5608 104.825 19.9129 106.916 19.9129H110.39L110.91 18.4957Z" fill="#D61500"/>
<path d="M125.41 8.86133H123.615L121.867 13.6112H115.958L117.706 8.86133H115.91L111.848 19.9028H113.643L115.442 15.0198H121.347L119.552 19.9028H121.347L125.41 8.86133Z" fill="#D61500"/>
<path d="M123.762 19.9028H125.561L129.62 8.86133H127.824L123.762 19.9028Z" fill="#D61500"/>
<path d="M131.889 8.86133L129.45 15.5008C128.823 17.1886 128.742 18.0647 129.15 18.7819C129.618 19.5936 130.481 19.9071 132.207 19.9071H134.96L135.475 18.4984H133.075C131.902 18.4984 131.211 18.2665 130.932 17.7555C130.721 17.3217 130.816 16.6646 131.318 15.2904L133.685 8.86562H131.889V8.86133Z" fill="#D61500"/>
<path d="M147.339 8.86133H144.182C142.499 8.86133 141.331 9.12759 140.321 9.72454C138.642 10.7338 137.388 12.3528 136.559 14.6075C135.954 16.2481 135.859 17.3732 136.25 18.3696C136.692 19.4948 137.616 19.9114 139.596 19.9114H143.272L143.791 18.5027H140.433C138.938 18.5027 138.311 18.1549 138.105 17.2101C137.981 16.583 138.067 15.9045 138.359 15.0542H145.054L145.574 13.6498H138.891C139.321 12.6234 139.613 12.1424 140.158 11.5798C141.086 10.6049 141.932 10.2743 143.559 10.2743H146.815L147.339 8.86133Z" fill="#D61500"/>
<path d="M90.6926 17.8472H95.7817C96.6578 17.8472 97.1517 17.7656 97.4823 17.5981C97.8946 17.392 98.2081 17.0527 98.3584 16.649C98.5388 16.1637 98.4314 15.7729 98.1051 15.584C97.9419 15.468 97.5596 15.3993 97.0271 15.3993H94.9915C93.6644 15.3993 92.8528 15.1717 92.4319 14.6563C91.9552 14.0594 91.9036 13.1532 92.2558 12.2127C92.7797 10.7955 94.0037 9.5758 95.3307 9.1764C95.9062 8.99173 96.5161 8.94449 97.8087 8.94449H103.383L102.614 11.0274H97.6155C97.0915 11.036 96.8081 11.0403 96.6105 11.0531C96.4173 11.066 96.3056 11.0832 96.1167 11.1262C95.6442 11.2292 95.2234 11.6286 95.0215 12.1826C94.8455 12.655 94.9399 12.9943 95.2234 13.1446C95.481 13.282 95.713 13.3164 96.5118 13.3164H98.2854C99.9088 13.3164 100.738 13.5569 101.167 14.244C101.502 14.7637 101.472 15.7514 101.124 16.6834C100.686 17.8687 99.7284 18.9552 98.6591 19.4878C97.9676 19.8399 97.2204 19.9344 95.5798 19.9344H89.9238L90.6926 17.8472ZM83.6065 11.9207C83.0739 12.4489 82.5929 13.2949 82.1678 14.4416C81.2358 16.9668 81.7168 18.0276 83.615 18.0276C85.539 18.0276 86.8231 16.911 87.7636 14.3772C88.687 11.8863 88.1931 10.8556 86.2949 10.8556C85.2642 10.8556 84.2979 11.2378 83.6065 11.9207ZM90.8128 10.5893C91.1864 11.4783 91.0361 12.9428 90.4349 14.5704C89.1164 18.1393 86.6041 19.9945 83.0911 19.9945C80.961 19.9945 79.4965 19.3117 79.0671 18.0448C78.745 17.1257 78.8738 15.9232 79.4192 14.4545C80.1879 12.3802 81.3561 10.7912 82.7819 9.93655C83.9114 9.24511 85.4231 8.86719 87.0378 8.86719C88.949 8.86719 90.3705 9.48561 90.8128 10.5893ZM79.591 11.0317H76.4731C74.8927 11.0317 74.2528 11.2078 73.5614 11.809C73.0975 12.2213 72.9387 12.4532 72.5006 13.4324H78.702L77.9333 15.5152H71.7276C71.2552 17.2589 71.8006 17.8472 73.9951 17.8472H77.0701L76.297 19.9301H73.1791C70.83 19.9301 69.7735 19.6252 69.2066 18.6761C68.5968 17.6883 68.6526 16.1466 69.3226 14.3385C70.0355 12.4059 71.2595 10.8642 72.8785 9.83347C73.9135 9.1764 74.7724 8.94449 76.2756 8.94449H80.3597L79.591 11.0317ZM37.8216 11.9207C37.2891 12.4489 36.8081 13.2949 36.3829 14.4416C35.451 16.9668 35.932 18.0276 37.8259 18.0276C39.7499 18.0276 41.034 16.911 41.9745 14.3772C42.8936 11.8863 42.404 10.8556 40.5058 10.8556C39.4836 10.8556 38.5174 11.2378 37.8216 11.9207ZM45.028 10.5893C45.3973 11.4783 45.2556 12.9428 44.6501 14.5704C43.3316 18.1393 40.8236 19.9945 37.3063 19.9945C35.1762 19.9945 33.7117 19.3117 33.2822 18.0448C32.9601 17.1257 33.089 15.9232 33.6344 14.4545C34.3988 12.3802 35.5713 10.7912 36.9971 9.93655C38.1265 9.24511 39.6382 8.86719 41.253 8.86719C43.1684 8.86719 44.5899 9.48561 45.028 10.5893ZM31.0319 19.9301H27.1323C25.2255 19.9301 24.3709 19.6724 23.7868 18.8264C23.1512 17.8988 23.2028 16.3742 23.92 14.4373C24.8261 11.9894 26.3851 10.1642 28.2318 9.43837C28.979 9.14204 30.1558 8.94449 31.2423 8.94449H35.0946L34.3258 11.0274H30.8085C29.7306 11.0274 28.8631 11.3151 28.1802 11.8863C27.6692 12.3115 27.1581 13.1575 26.7458 14.2741C26.1532 15.876 26.1145 16.9454 26.5612 17.3791C26.8489 17.6797 27.4244 17.8429 28.3134 17.8429H31.8006L31.0319 19.9301Z" fill="#D61500"/>
<path d="M31.0319 19.929H27.1323C25.2255 19.929 24.3709 19.6713 23.7868 18.8253C23.1512 17.8976 23.2028 16.373 23.92 14.4362C24.8261 11.9882 26.3851 10.163 28.2318 9.43724C28.979 9.14091 30.1558 8.94336 31.2423 8.94336H35.0946L34.3258 11.0262H30.8085C29.7306 11.0262 28.8631 11.314 28.1802 11.8852C27.6692 12.3103 27.1581 13.1564 26.7458 14.273C26.1532 15.8749 26.1145 16.9442 26.5612 17.378C26.8489 17.6786 27.4244 17.8418 28.3134 17.8418H31.8006L31.0319 19.929Z" fill="#D61500"/>
<path d="M37.8229 11.9207C37.2904 12.4446 36.8094 13.2949 36.3842 14.4416C35.448 16.9668 35.9333 18.0276 37.8315 18.0276C39.7555 18.0276 41.0396 16.911 41.9758 14.3772C42.8949 11.8863 42.4053 10.8556 40.5071 10.8556C39.4849 10.8556 38.5144 11.2378 37.8229 11.9207ZM45.0293 10.5893C45.3986 11.4783 45.2526 12.9428 44.6514 14.5704C43.3329 18.1393 40.8206 19.9988 37.3076 19.9988C35.1774 19.9988 33.713 19.3117 33.2835 18.0491C32.9614 17.13 33.0903 15.9275 33.6357 14.4588C34.4001 12.3845 35.5726 10.7955 36.9984 9.93655C38.1278 9.24511 39.6395 8.86719 41.2586 8.86719C43.1654 8.86719 44.5912 9.48561 45.0293 10.5893Z" fill="#D61500"/>
<path d="M79.5897 11.0305H76.4718C74.8914 11.0305 74.2515 11.2066 73.5601 11.8079C73.0963 12.2201 72.9374 12.4521 72.4993 13.4269H78.7007L77.932 15.5141H71.7263C71.2539 17.2577 71.7993 17.8461 73.9939 17.8461H77.0688L76.2958 19.929H73.1779C70.8287 19.929 69.7722 19.6241 69.2054 18.6749C68.5955 17.6872 68.6514 16.1497 69.3213 14.3374C70.0342 12.4048 71.2582 10.8631 72.8773 9.83234C73.9123 9.17527 74.7712 8.94336 76.2743 8.94336H80.3585L79.5897 11.0305Z" fill="#D61500"/>
<path d="M83.6087 11.9207C83.0761 12.4446 82.5951 13.2949 82.17 14.4416C81.238 16.9668 81.7147 18.0276 83.613 18.0276C85.5369 18.0276 86.821 16.911 87.7616 14.3772C88.6806 11.8863 88.191 10.8556 86.2928 10.8556C85.2664 10.8556 84.3001 11.2378 83.6087 11.9207ZM90.8107 10.5893C91.1844 11.4783 91.0383 12.9428 90.4328 14.5704C89.1144 18.1393 86.602 19.9988 83.089 19.9988C80.9589 19.9988 79.4944 19.3117 79.065 18.0491C78.7429 17.13 78.8717 15.9275 79.4128 14.4588C80.1816 12.3845 81.354 10.7955 82.7755 9.93655C83.905 9.24511 85.4167 8.86719 87.0315 8.86719C88.9512 8.86719 90.3727 9.48561 90.8107 10.5893Z" fill="#D61500"/>
<path d="M90.6949 17.8457H95.784C96.6601 17.8457 97.154 17.7641 97.4847 17.5966C97.8927 17.3905 98.2105 17.0512 98.3608 16.6475C98.5412 16.1622 98.4295 15.7714 98.1074 15.5867C97.9442 15.4708 97.562 15.4021 97.0295 15.4021H94.9938C93.6668 15.4021 92.8551 15.1745 92.4342 14.6591C91.9575 14.0621 91.906 13.156 92.2581 12.2155C92.7821 10.7982 94.006 9.57857 95.3331 9.17917C95.9086 8.99451 96.5184 8.94727 97.8111 8.94727H103.385L102.617 11.0344H97.6178C97.0939 11.043 96.8104 11.0473 96.6129 11.0602C96.4196 11.0731 96.308 11.0903 96.119 11.1332C95.6466 11.2406 95.2257 11.64 95.0239 12.1897C94.8478 12.6621 94.9466 13.0014 95.2257 13.1517C95.4834 13.2891 95.7153 13.3235 96.5141 13.3235H98.2835C99.9068 13.3235 100.736 13.564 101.165 14.2511C101.5 14.7708 101.47 15.7542 101.122 16.6904C100.684 17.8758 99.7265 18.9623 98.6571 19.4905C97.9657 19.8427 97.2184 19.9372 95.5779 19.9372H89.9219L90.6949 17.8457Z" fill="#D61500"/>
<path d="M68.6633 9.60005C68.1436 9.12334 67.2031 8.94727 65.5325 8.94727H60.0783L56.0156 19.9329H58.5323L60.0526 15.8229H60.0697L60.8342 13.7358H60.8256L61.8305 11.0302H65.073C65.4638 11.0302 65.7343 11.0602 65.8889 11.1032C66.2797 11.2578 66.4172 11.6572 66.181 12.2885C65.7988 13.3106 65.1889 13.7315 64.0122 13.7315H62.3072L61.4741 15.8186H61.8864C63.9263 15.8186 64.3601 16.3726 63.8619 18.288C63.8018 18.5028 63.6815 18.958 63.6085 19.25C63.5484 19.4991 63.5269 19.6022 63.5226 19.8513L63.5183 19.9286H66.3098V19.8513C66.3098 19.4605 66.357 19.2414 66.6491 18.2322C67.1601 16.6389 66.9669 15.6254 65.919 15.2088C67.4307 14.6892 68.4356 13.667 69.0283 12.0652C69.3976 11.0602 69.2817 10.1498 68.6633 9.60005Z" fill="#D61500"/>
<path d="M56.8238 9.60005C56.3042 9.12334 55.3636 8.94727 53.693 8.94727H48.2389L44.1719 19.9329H46.6885L48.2088 15.8229H48.2303L48.9947 13.7358H48.9818L49.9868 11.0302H53.2292C53.62 11.0302 53.8949 11.0602 54.0495 11.1032C54.4403 11.2578 54.5777 11.6572 54.3415 12.2885C53.9636 13.3106 53.3495 13.7315 52.1727 13.7315H50.4721L49.6389 15.8186H50.0512C52.0868 15.8186 52.5249 16.3726 52.0224 18.288C51.958 18.5028 51.8421 18.958 51.769 19.25C51.7089 19.4991 51.6917 19.6022 51.6832 19.8513L51.6789 19.9286H54.4661V19.8513C54.4661 19.4605 54.5176 19.2414 54.8053 18.2322C55.3164 16.6389 55.1231 15.6254 54.0753 15.2088C55.587 14.6892 56.5919 13.667 57.1845 12.0652C57.5582 11.0602 57.4422 10.1498 56.8238 9.60005Z" fill="#D61500"/>
</svg>
