<?xml version="1.0" encoding="utf-8"?>
<!-- Generator: Adobe Illustrator 26.2.1, SVG Export Plug-In . SVG Version: 6.00 Build 0)  -->
<svg version="1.1" id="Layer_1" xmlns="http://www.w3.org/2000/svg" xmlns:xlink="http://www.w3.org/1999/xlink" x="0px" y="0px"
	 viewBox="0 0 250 68" style="enable-background:new 0 0 250 68;" xml:space="preserve">
<style type="text/css">
	.st0{fill:#FFFFFF;}
	.st1{fill:#E52521;}
</style>
<g>
	<rect x="24.4" y="12" class="st0" width="193" height="45.1"/>
	<g>
		<path class="st1" d="M214.7,7H27.5c-5.3,0-9.6,4.3-9.6,9.6v37.3c0,5.3,4.3,9.6,9.6,9.6h187.3c5.3,0,9.6-4.3,9.6-9.6V16.6
			C224.3,11.3,220,7,214.7,7z M74.3,26.7H48.2v6.5h25.1v5.9H48.1v11.4h-7.7V20.3h33.9V26.7z M115.8,41.5c0,6.5-5,8.9-9.5,8.9H89.9
			c-4.4,0-9.5-2.4-9.5-8.9c0-6.4,0-21.2,0-21.2h7.6V40c0,2.3,1,3.8,3.6,3.8h12.8c2.6,0,3.6-1.6,3.6-3.9V20.3h7.7
			C115.8,20.3,115.8,35,115.8,41.5z M151,50.4c-3.9,0-28.1,0-28.1,0v-6.2h25.7c1.7,0,2.6-1,2.6-3.1c0-2.1-0.9-2.9-2.8-2.9
			c-1.7,0-18.3,0-18.3,0c-3.8,0-7.9-1.8-7.9-9.1c0-7,3.3-9,7.9-9c3.9,0,27.4,0,27.4,0v6.2h-25c-1.7,0-2.6,0.6-2.6,2.6
			c0,2.1,0.9,2.9,2.8,2.9c1.9,0,18.3,0,18.3,0c3.8,0,7.9,1.8,7.9,9.1C159,48.1,155.7,50.4,151,50.4z M205.1,41c0,9.4-7.4,9.3-12,9.3
			l-16.7,0c-4.6,0-12,0.1-12-9.3V29.7c0-9.4,7.4-9.4,12-9.4l16.7,0c4.6,0,12-0.1,12,9.3V41z"/>
		<path class="st1" d="M190.6,26.5h-11.7c-2.5,0-6.9-0.6-6.9,4.8v8.1c0,5.5,4.4,4.9,6.9,4.9h11.7c2.5,0,6.9,0.6,6.9-4.9v-8.1
			C197.5,25.8,193.1,26.5,190.6,26.5z"/>
	</g>
</g>
</svg>
