<svg width="174" height="38" viewBox="0 0 174 38" fill="none" xmlns="http://www.w3.org/2000/svg">
<g clip-path="url(#clip0_1646_454)">
<path d="M146.948 31.6667C141.703 31.6667 137.435 28.0145 137.435 23.5251V11.9416C137.435 7.45232 141.703 3.80005 146.948 3.80005H164.486C169.732 3.80005 174 7.45232 174 11.9416V23.5251C174 28.0145 169.732 31.6667 164.486 31.6667H146.948ZM145.318 10.4975C145.21 10.4975 145.122 10.5889 145.122 10.701V24.749C145.122 24.8613 145.21 24.9525 145.318 24.9525H165.996C166.104 24.9525 166.192 24.8613 166.192 24.749V10.701C166.192 10.5889 166.104 10.4975 165.996 10.4975H145.318Z" fill="white"/>
<path d="M90.1403 31.6666H68.6273C63.4626 31.6666 59.261 28.0143 59.261 23.5249V11.9375C59.261 7.44816 63.4626 3.79589 68.6273 3.80039H90.0335L90.1892 3.80005C90.5169 3.80005 90.7825 4.07956 90.7825 4.42436L90.7826 4.44879V9.87453C90.7826 10.2193 90.5169 10.4989 90.1892 10.4989L90.1395 10.4985L67.0531 10.4989C66.929 10.4989 66.8281 10.6052 66.8281 10.7358V24.7154C66.8281 24.846 66.929 24.9523 67.0531 24.9523L90.1189 24.9525L90.1892 24.9528C90.5169 24.9528 90.7825 25.2322 90.7825 25.5771L90.7827 25.5887L90.78 31.0373L90.7807 31.0424C90.7807 31.3873 90.5169 31.6667 90.1892 31.6667L90.1403 31.6666Z" fill="white"/>
<path d="M130.462 31.6666H108.089C102.718 31.6666 98.3479 28.0143 98.3479 23.5249V11.9375C98.3479 7.44816 102.718 3.79589 108.089 3.80039H130.352L130.514 3.80005C130.854 3.80005 131.131 4.07956 131.131 4.42436V4.44879V9.87453C131.131 10.2193 130.854 10.4989 130.514 10.4989L130.462 10.4985L106.452 10.4989C106.323 10.4989 106.218 10.6052 106.218 10.7358V24.7154C106.218 24.846 106.323 24.9523 106.452 24.9523L130.44 24.9525L130.514 24.9528C130.854 24.9528 131.131 25.2322 131.131 25.5771V25.5887L131.127 31.0373L131.128 31.0424C131.128 31.3873 130.854 31.6667 130.514 31.6667L130.462 31.6666Z" fill="white"/>
<path d="M90.429 21.5333H70.9621C70.7677 21.5333 70.6086 21.3637 70.6086 21.1563V15.5769C70.6086 15.3695 70.7677 15.2 70.9621 15.2H90.429C90.6235 15.2 90.7826 15.3695 90.7826 15.5769V21.1563C90.7826 21.3637 90.6235 21.5333 90.429 21.5333Z" fill="white"/>
<path d="M34.0678 32.9334C30.9767 32.9334 28.1657 31.5033 26.7319 29.2011L26.6489 29.0599L12.6773 4.63303C12.5844 4.46451 12.5863 4.26896 12.6801 4.10607C12.7888 3.91727 13.0027 3.80005 13.2383 3.80005H20.6107C20.8511 3.80005 21.0668 3.92065 21.1738 4.11482L33.7932 26.0878C33.8196 26.1195 33.8986 26.1895 34.0795 26.1933C34.2863 26.1918 34.3442 26.0952 34.3721 26.0488L48.0707 4.09355C48.1781 3.91403 48.39 3.80005 48.6213 3.80005H56.1089C56.3489 3.80005 56.5648 3.92065 56.6721 4.11482C56.7648 4.28259 56.7611 4.48139 56.6621 4.64666L41.4663 29.104C40.0664 31.4436 37.2569 32.9122 34.1363 32.9332L34.0678 32.9334Z" fill="white"/>
<path d="M6.97723 31.6667H0.587982C0.264594 31.6667 0 31.3859 0 31.0425V4.42434C0 4.08098 0.264594 3.80005 0.587982 3.80005H6.97723C7.30062 3.80005 7.56522 4.08098 7.56522 4.42434V31.0425C7.56522 31.3859 7.30062 31.6667 6.97723 31.6667Z" fill="white"/>
</g>
<defs>
<clipPath id="clip0_1646_454">
<rect width="174" height="38" fill="white"/>
</clipPath>
</defs>
</svg>
