<?xml version="1.0" encoding="utf-8"?>
<!-- Generator: Adobe Illustrator 16.0.0, SVG Export Plug-In . SVG Version: 6.00 Build 0)  -->
<!DOCTYPE svg PUBLIC "-//W3C//DTD SVG 1.1//EN" "http://www.w3.org/Graphics/SVG/1.1/DTD/svg11.dtd">
<svg version="1.1" id="Layer_1" xmlns="http://www.w3.org/2000/svg" xmlns:xlink="http://www.w3.org/1999/xlink" x="0px" y="0px"
	 width="53px" height="48px" viewBox="0 0 53 48" enable-background="new 0 0 53 48" xml:space="preserve">
<g>
	<path fill="#FFFFFF" d="M8.817,47.786c0.518,0,0.847,0.025,1.709,0.101v-0.301c-0.985-0.064-1.106-0.164-1.123-0.84l-0.149-6.153
		v-0.088c0-0.563,0.205-0.689,1.137-0.741v-0.309c-0.521,0.037-0.741,0.049-1.083,0.049c-0.412,0-0.696-0.012-1.315-0.063
		l-2.582,6.34l-2.548-6.34c-0.521,0.051-0.794,0.063-1.303,0.063c-0.38,0-0.588-0.012-1.119-0.049v0.309
		c0.942,0.052,1.132,0.179,1.132,0.757v0.072l-0.284,6.153c-0.028,0.676-0.166,0.775-1.123,0.84v0.301
		c0.711-0.051,0.984-0.064,1.368-0.064c0.384,0,0.657,0.014,1.356,0.064v-0.301c-0.961-0.064-1.135-0.177-1.135-0.727v-0.113
		l0.272-6.503l2.244,5.552l0.165,0.437l0.19,0.489l0.191,0.489l0.151,0.401h0.208l0.147-0.414l0.179-0.477l0.191-0.464l0.168-0.412
		l2.256-5.59l0.126,6.491v0.063c0,0.589-0.207,0.724-1.139,0.777v0.301C7.967,47.812,8.296,47.786,8.817,47.786 M12.305,44.291
		c0.138-1.442,0.654-2.182,1.533-2.182c0.887,0,1.341,0.704,1.424,2.182H12.305z M12.279,44.742h4.079
		c-0.029-1.929-0.893-2.956-2.507-2.956c-1.643,0-2.67,1.216-2.67,3.145s1.027,3.055,2.794,3.055c1.339,0,2.217-0.765,2.395-2.055
		h-0.549c-0.162,1.065-0.767,1.645-1.738,1.645C12.839,47.575,12.292,46.696,12.279,44.742 M21.894,42.799
		c0-0.604-0.506-1.013-1.188-1.013c-0.714,0-1.303,0.409-1.604,1.127V42.77c-0.026-0.37-0.054-0.574-0.123-1.034
		c-0.56,0.151-1.027,0.225-1.806,0.288v0.222h0.176c0.712,0.016,0.784,0.076,0.796,0.613v0.204v3.897
		c0,0.536-0.152,0.636-0.987,0.675v0.252c0.753-0.064,1.042-0.075,1.534-0.075c0.477,0,0.766,0.011,1.519,0.075v-0.252
		c-0.833-0.039-0.973-0.139-0.973-0.675v-2.622c0-1.236,0.453-2.027,1.165-2.027c0.248,0,0.413,0.127,0.413,0.301v0.112
		l-0.029,0.125c-0.015,0.053-0.028,0.102-0.028,0.127c0,0.248,0.247,0.424,0.563,0.424C21.66,43.399,21.894,43.16,21.894,42.799
		 M23.611,44.931c0-1.791,0.601-2.809,1.63-2.809c0.836,0,1.339,0.529,1.587,1.615h0.297v-2.066h-0.228l-0.371,0.64
		c-0.438-0.388-0.807-0.524-1.395-0.524c-1.617,0-2.709,1.276-2.709,3.145c0,1.828,1.077,3.055,2.667,3.055
		c1.233,0,2.01-0.726,2.188-2.065h-0.56c-0.166,1.101-0.672,1.655-1.521,1.655C24.146,47.575,23.611,46.682,23.611,44.931
		 M29.375,44.291c0.136-1.442,0.658-2.182,1.532-2.182c0.892,0,1.34,0.704,1.421,2.182H29.375z M29.347,44.742h4.081
		c-0.032-1.929-0.891-2.956-2.508-2.956c-1.638,0-2.667,1.216-2.667,3.145s1.029,3.055,2.792,3.055c1.343,0,2.218-0.765,2.395-2.055
		h-0.546c-0.164,1.065-0.766,1.645-1.738,1.645C29.909,47.575,29.362,46.696,29.347,44.742 M38.71,45.005
		c0,1.741-0.507,2.643-1.489,2.643c-0.991,0-1.505-0.94-1.505-2.731c0-1.814,0.478-2.706,1.46-2.706
		C38.188,42.21,38.71,43.16,38.71,45.005 M40.585,47.671l0.206-0.023v-0.211c-0.916-0.027-1.003-0.089-1.003-0.854v-7.234
		c-0.682,0.166-1.297,0.267-2.064,0.346v0.211c0.861,0,0.973,0.089,0.973,0.74v2.191c-0.508-0.754-0.904-0.978-1.645-0.978
		c-1.463,0-2.492,1.265-2.492,3.072c0,1.803,1.046,3.069,2.531,3.069c0.785,0,1.315-0.329,1.699-1.027
		c0.054,0.474,0.054,0.523,0.19,1.002C39.54,47.812,39.774,47.761,40.585,47.671 M42.43,44.291c0.135-1.442,0.656-2.182,1.532-2.182
		c0.891,0,1.342,0.704,1.427,2.182H42.43z M42.404,44.742h4.075c-0.025-1.929-0.885-2.956-2.502-2.956
		c-1.644,0-2.671,1.216-2.671,3.145s1.027,3.055,2.793,3.055c1.341,0,2.217-0.765,2.396-2.055h-0.547
		c-0.164,1.065-0.769,1.645-1.737,1.645C42.964,47.575,42.413,46.696,42.404,44.742 M48.63,43.211c0-0.589,0.56-1.041,1.284-1.041
		c0.863,0,1.315,0.481,1.436,1.481h0.318v-1.943h-0.249l-0.229,0.518c-0.468-0.29-0.866-0.404-1.396-0.404
		c-1.208,0-2.056,0.678-2.056,1.667c0,0.727,0.318,1.077,1.313,1.504l0.633,0.263l0.518,0.211c0.674,0.278,0.935,0.563,0.935,0.994
		c0,0.637-0.604,1.126-1.417,1.126c-0.954,0-1.531-0.552-1.776-1.69l-0.299,0.012V48h0.249l0.327-0.563
		c0.52,0.375,1.013,0.524,1.641,0.524c1.288,0,2.205-0.751,2.205-1.805c0-0.737-0.37-1.141-1.41-1.552l-0.578-0.229
		C48.833,43.877,48.63,43.716,48.63,43.211"/>
	<path fill="#FFFFFF" d="M9.556,18.564c-2.112,1.795-5.348,4.508-5.348,7.54c0,3.652,5.093,9.048,8.086,9.048
		c0.848,0,1.546-0.398,1.546-2.404c0-1.092-0.417-2.769-1.053-4.791c-0.993-3.155-2.172-6.252-3.23-9.389L9.556,18.564z
		 M28.34,29.399c1.742-1.812,3.39-5.061,3.519-8.312c0.083-2.154-0.447-3.398-1.045-3.398c-1.355,0-3.541,3.119-3.541,6.862
		C27.272,26.224,27.621,27.894,28.34,29.399 M15.427,0.664c1.07,0.334,0.057,1.152-0.83,1.034C14.42,1.674,13.985,1.64,13.736,1.64
		c-2.52,0-5.334,2.025-5.334,6.277c0,2.384,0.806,5.465,1.853,8.704c4.095-3.451,7.818-5.953,10.192-7.81
		c0.297-0.232,0.677-0.263,1.055-0.081c0.256,0.123,0.54,0.436,0.229,0.713c-4.626,4.112-6.534,16.067-4.809,18.952
		c0.139,0.233,0.329,0.298,0.657,0.016c1.503-1.287,3.349-6.707,4.134-8.724c0.177-0.457,0.403-0.81,0.784-0.81
		c0.376,0,0.542,0.354,0.612,1.018c0.199,1.918-0.359,10.964,2.71,10.964c0.51,0,1.097-0.259,1.697-0.72
		c-0.875-1.516-1.419-3.388-1.419-5.639c0-3.869,2.408-7.732,4.664-7.732c1.651,0,1.964,2.267,1.909,4.281
		c-0.079,2.833-1.736,6.851-3.998,8.987c1.691,2.982,4.793,4.914,8.6,4.782c0.381-0.015,0.4,0.38,0.015,0.424
		c-2.915,0.327-7.072-1.043-9.423-4.546c-0.702,0.491-1.442,0.779-2.189,0.779c-2.985,0-3.57-4.924-3.696-9.75
		c-0.558,1.258-1.164,2.839-1.835,4.22c-0.67,1.38-1.422,2.596-2.279,3.078c-0.733,0.412-1.221,0.227-1.596-0.273
		c-2.113-2.814-0.836-11.808,2.173-17.173c-2.049,1.538-5.001,3.696-7.843,6.096c0.334,0.995,0.684,2.001,1.034,2.999
		c0.811,2.312,1.622,4.584,2.229,6.622c0.607,2.036,1.016,3.851,1.016,5.243c0,2.64-1.321,3.257-2.462,3.257
		c-1.971,0-4.173-1.518-6.047-3.479c-1.728-1.806-3.206-4.223-3.206-6.245c0-2.84,2.005-5.056,6.044-8.557
		c-1.19-3.634-2.145-7.15-2.145-9.682c0-4.361,2.757-7.391,6.725-7.391C14.614,0.441,15.124,0.57,15.427,0.664 M44.068,13.067
		c0.514,0.171,0.549,1.188,0.002,1.052c-0.232-0.058-0.47-0.1-0.758-0.1c-1.108,0-1.998,0.618-1.998,1.918
		c0,2.983,5.961,6.661,5.961,10.932c0,3.315-3.513,6.466-5.98,7.549c-0.349,0.153-0.508-0.216-0.203-0.379
		c2.36-1.263,5.129-4.287,5.129-7.105c0-3.866-6.092-7.577-6.092-10.996c0-1.99,1.494-2.973,3.119-2.973
		C43.597,12.966,43.879,13.004,44.068,13.067 M34.584,13.219c0.324-0.189,0.898,0.001,1.031,0.364
		c0.408,1.137,0.514,3.868,0.305,5.254c-0.089,0.559-0.851,0.799-0.824,0.209c0.051-1.167-0.035-3.426-0.644-5.502
		C34.405,13.396,34.477,13.282,34.584,13.219"/>
</g>
</svg>
